<mxfile host="app.diagrams.net" agent="Mozilla/5.0 (Windows NT 10.0; Win64; x64) AppleWebKit/537.36 (KHTML, like Gecko) Chrome/139.0.0.0 Safari/537.36" version="28.1.2">
  <diagram id="ssYkoaOKDuwVkxelxi_U" name="第 1 页">
    <mxGraphModel dx="983" dy="536" grid="1" gridSize="10" guides="1" tooltips="1" connect="1" arrows="1" fold="1" page="1" pageScale="1" pageWidth="827" pageHeight="1169" math="0" shadow="0">
      <root>
        <mxCell id="0" />
        <mxCell id="1" parent="0" />
        <mxCell id="80pM4SGm5IRm5ZGxhUhk-17" value="" style="image;aspect=fixed;html=1;points=[];align=center;fontSize=12;image=img/lib/azure2/databases/Virtual_Clusters.svg;" vertex="1" parent="1">
          <mxGeometry x="670" y="810" width="66" height="64" as="geometry" />
        </mxCell>
        <mxCell id="80pM4SGm5IRm5ZGxhUhk-21" value="" style="verticalLabelPosition=bottom;verticalAlign=top;html=1;shape=mxgraph.basic.rect;fillColor2=none;strokeWidth=1;size=20;indent=5;dashed=1;dashPattern=8 8;strokeColor=#99FFFF;" vertex="1" parent="1">
          <mxGeometry x="60" y="810" width="400" height="260" as="geometry" />
        </mxCell>
        <mxCell id="80pM4SGm5IRm5ZGxhUhk-22" value="" style="verticalLabelPosition=bottom;verticalAlign=top;html=1;shape=mxgraph.basic.rect;fillColor2=none;strokeWidth=1;size=20;indent=5;dashed=1;dashPattern=8 8;" vertex="1" parent="1">
          <mxGeometry x="70" y="530" width="330" height="70" as="geometry" />
        </mxCell>
        <mxCell id="80pM4SGm5IRm5ZGxhUhk-23" value="" style="verticalLabelPosition=bottom;verticalAlign=top;html=1;shadow=0;dashed=0;strokeWidth=1;shape=mxgraph.android.phone2;strokeColor=#006EAF;fillColor=#1ba1e2;fontColor=#ffffff;" vertex="1" parent="1">
          <mxGeometry x="85" y="540" width="25" height="40" as="geometry" />
        </mxCell>
        <mxCell id="80pM4SGm5IRm5ZGxhUhk-24" value="" style="verticalLabelPosition=bottom;verticalAlign=top;html=1;shadow=0;dashed=0;strokeWidth=1;shape=mxgraph.android.phone2;strokeColor=#006EAF;direction=south;fillColor=#1ba1e2;fontColor=#ffffff;" vertex="1" parent="1">
          <mxGeometry x="140" y="550" width="40" height="20" as="geometry" />
        </mxCell>
        <mxCell id="80pM4SGm5IRm5ZGxhUhk-27" value="" style="verticalLabelPosition=bottom;verticalAlign=top;html=1;shadow=0;dashed=0;strokeWidth=1;shape=mxgraph.android.tab2;strokeColor=#006EAF;fillColor=#1ba1e2;fontColor=#ffffff;" vertex="1" parent="1">
          <mxGeometry x="200" y="540" width="30" height="40" as="geometry" />
        </mxCell>
        <mxCell id="80pM4SGm5IRm5ZGxhUhk-28" value="" style="image;html=1;image=img/lib/clip_art/computers/Monitor_128x128.png" vertex="1" parent="1">
          <mxGeometry x="260" y="540" width="40" height="40" as="geometry" />
        </mxCell>
        <mxCell id="80pM4SGm5IRm5ZGxhUhk-29" value="" style="image;html=1;image=img/lib/clip_art/computers/Laptop_128x128.png" vertex="1" parent="1">
          <mxGeometry x="333" y="530" width="47" height="60" as="geometry" />
        </mxCell>
        <mxCell id="80pM4SGm5IRm5ZGxhUhk-31" value="用户访问" style="text;html=1;align=center;verticalAlign=middle;resizable=0;points=[];autosize=1;strokeColor=none;fillColor=none;" vertex="1" parent="1">
          <mxGeometry x="414" y="545" width="70" height="30" as="geometry" />
        </mxCell>
        <mxCell id="80pM4SGm5IRm5ZGxhUhk-35" value="" style="html=1;outlineConnect=0;fillColor=#1ba1e2;strokeColor=#006EAF;gradientDirection=north;strokeWidth=2;shape=mxgraph.networks.cloud;fontColor=#ffffff;" vertex="1" parent="1">
          <mxGeometry x="170" y="630" width="90" height="50" as="geometry" />
        </mxCell>
        <mxCell id="80pM4SGm5IRm5ZGxhUhk-38" value="" style="fontColor=#ffffff;verticalAlign=top;verticalLabelPosition=bottom;labelPosition=center;align=center;html=1;outlineConnect=0;fillColor=#1ba1e2;strokeColor=#006EAF;gradientDirection=north;strokeWidth=2;shape=mxgraph.networks.comm_link;rotation=30;" vertex="1" parent="1">
          <mxGeometry x="84.13" y="607.77" width="45" height="103.47" as="geometry" />
        </mxCell>
        <mxCell id="80pM4SGm5IRm5ZGxhUhk-40" value="" style="fontColor=#ffffff;verticalAlign=top;verticalLabelPosition=bottom;labelPosition=center;align=center;html=1;outlineConnect=0;fillColor=#1ba1e2;strokeColor=#006EAF;gradientDirection=north;strokeWidth=2;shape=mxgraph.networks.comm_link;rotation=30;" vertex="1" parent="1">
          <mxGeometry x="320.0030715851499" y="607.768824264788" width="45" height="103.47" as="geometry" />
        </mxCell>
      </root>
    </mxGraphModel>
  </diagram>
</mxfile>
